<?xml version="1.0" encoding="UTF-8" standalone="no"?><!DOCTYPE svg PUBLIC "-//W3C//DTD SVG 1.1//EN" "http://www.w3.org/Graphics/SVG/1.1/DTD/svg11.dtd"><svg width="100%" height="100%" viewBox="0 0 325 210" version="1.1" xmlns="http://www.w3.org/2000/svg" xmlns:xlink="http://www.w3.org/1999/xlink" xml:space="preserve" xmlns:serif="http://www.serif.com/" style="fill-rule:evenodd;clip-rule:evenodd;stroke-linejoin:round;stroke-miterlimit:1.41421;"><g id="logo"><path d="M0,23.638c0,-4.032 0.336,-7.296 1.008,-9.792c0.672,-2.496 1.968,-4.416 3.888,-5.76c1.92,-1.344 4.656,-2.256 8.208,-2.736c3.552,-0.48 8.208,-0.72 13.968,-0.72l40.608,0c12.672,0 23.376,1.056 32.112,3.168c8.736,2.112 15.888,5.664 21.456,10.656c5.568,4.992 9.6,11.568 12.096,19.728c2.496,8.16 3.744,18.192 3.744,30.096c0,11.904 -1.344,22.08 -4.032,30.528c-2.688,8.448 -6.816,15.36 -12.384,20.736c-5.568,5.376 -12.72,9.312 -21.456,11.808c-8.736,2.496 -19.248,3.744 -31.536,3.744l-30.24,0l0,58.176c0,3.84 -1.44,7.296 -4.32,10.368c-2.88,3.072 -7.68,4.608 -14.4,4.608c-6.72,0 -11.52,-1.632 -14.4,-4.896c-2.88,-3.264 -4.32,-6.624 -4.32,-10.08l0,-169.632Zm37.44,79.2l30.24,0c12.288,0 20.688,-2.688 25.2,-8.064c4.512,-5.376 6.768,-14.112 6.768,-26.208c0,-6.336 -0.816,-11.52 -2.448,-15.552c-1.632,-4.032 -3.888,-7.248 -6.768,-9.648c-2.88,-2.4 -6.24,-4.032 -10.08,-4.896c-3.84,-0.864 -8.064,-1.296 -12.672,-1.296l-30.24,0l0,65.664Z" style="fill:#26293d;fill-rule:nonzero;"/><path d="M184.474,55.894c0,4.416 1.344,8.256 4.032,11.52c2.688,3.264 6,6.144 9.936,8.64c3.936,2.496 8.064,4.608 12.384,6.336c4.32,1.728 8.208,3.36 11.664,4.896c8.64,3.84 16.128,7.68 22.464,11.52c6.336,3.84 11.568,7.968 15.696,12.384c4.128,4.416 7.104,9.408 8.928,14.976c1.824,5.568 2.64,11.904 2.448,19.008c-0.384,19.008 -6.336,34.32 -17.856,45.936c-11.52,11.616 -29.088,17.808 -52.704,18.576c-8.64,0.384 -16.752,-0.624 -24.336,-3.024c-7.584,-2.4 -14.16,-5.04 -19.728,-7.92c-4.992,-2.496 -8.976,-5.328 -11.952,-8.496c-2.976,-3.168 -5.136,-6.384 -6.48,-9.648c-1.344,-3.264 -1.968,-6.432 -1.872,-9.504c0.096,-3.072 0.912,-5.664 2.448,-7.776c2.688,-4.224 5.904,-6.576 9.648,-7.056c3.744,-0.48 7.248,0.336 10.512,2.448c2.88,1.92 5.904,3.984 9.072,6.192c3.168,2.208 6.528,4.224 10.08,6.048c3.552,1.824 7.296,3.312 11.232,4.464c3.936,1.152 8.208,1.728 12.816,1.728c3.84,0 7.632,-0.672 11.376,-2.016c3.744,-1.344 7.056,-3.264 9.936,-5.76c2.88,-2.496 5.184,-5.616 6.912,-9.36c1.728,-3.744 2.592,-8.016 2.592,-12.816c0,-4.608 -1.056,-8.64 -3.168,-12.096c-2.112,-3.456 -4.656,-6.48 -7.632,-9.072c-2.976,-2.592 -6.24,-4.752 -9.792,-6.48c-3.552,-1.728 -6.768,-3.072 -9.648,-4.032c-8.064,-2.88 -15.6,-6 -22.608,-9.36c-7.008,-3.36 -13.104,-7.344 -18.288,-11.952c-5.184,-4.608 -9.312,-10.08 -12.384,-16.416c-3.072,-6.336 -4.608,-13.824 -4.608,-22.464c0,-9.216 1.872,-17.328 5.616,-24.336c3.744,-7.008 8.688,-12.816 14.832,-17.424c6.144,-4.608 13.104,-8.064 20.88,-10.368c7.776,-2.304 15.696,-3.36 23.76,-3.168c9.024,0.192 17.376,1.632 25.056,4.32c7.68,2.688 14.064,6.048 19.152,10.08c5.088,4.032 8.544,8.4 10.368,13.104c1.824,4.704 1.488,9.168 -1.008,13.392c-1.344,2.112 -3.024,3.792 -5.04,5.04c-2.016,1.248 -4.128,2.112 -6.336,2.592c-2.208,0.48 -4.368,0.528 -6.48,0.144c-2.112,-0.384 -3.84,-1.152 -5.184,-2.304c-1.92,-1.344 -4.128,-2.832 -6.624,-4.464c-2.496,-1.632 -5.136,-3.12 -7.92,-4.464c-2.784,-1.344 -5.76,-2.496 -8.928,-3.456c-3.168,-0.96 -6.384,-1.44 -9.648,-1.44c-3.648,0 -6.912,0.72 -9.792,2.16c-2.88,1.44 -5.328,3.264 -7.344,5.472c-2.016,2.208 -3.6,4.704 -4.752,7.488c-1.152,2.784 -1.728,5.52 -1.728,8.208Z" style="fill:#26293d;fill-rule:nonzero;"/><path d="M285.743,188.583c0,-5.568 1.872,-10.224 5.616,-13.968c3.744,-3.744 8.4,-5.616 13.968,-5.616c5.568,0 10.224,1.872 13.968,5.616c3.744,3.744 5.616,8.4 5.616,13.968c0,5.568 -1.872,10.224 -5.616,13.968c-3.744,3.744 -8.4,5.616 -13.968,5.616c-5.568,0 -10.224,-1.872 -13.968,-5.616c-3.744,-3.744 -5.616,-8.4 -5.616,-13.968Z" style="fill:#f31d58;fill-rule:nonzero;"/></g></svg>